<svg id="Capa_1" enable-background="new 0 0 512 512" height="512" viewBox="0 0 512 512" width="512" xmlns="http://www.w3.org/2000/svg"><g><g><path d="m431.772 12.38h-351.544c-40.167 0-72.728 32.562-72.728 72.728v270.042c0 40.167 32.561 72.728 72.728 72.728h42.508v44.278c0 20.69 22.042 33.926 40.305 24.201l128.608-68.48h140.123c40.167 0 72.728-32.561 72.728-72.728v-270.041c0-40.166-32.561-72.728-72.728-72.728z" fill="#f9f6f9"/><path d="m35.636 85.104v270.046c0 40.165 32.567 72.722 72.732 72.722h-28.146c-40.165 0-72.722-32.557-72.722-72.722v-270.046c0-40.165 32.557-72.732 72.722-72.732h28.146c-40.165 0-72.732 32.567-72.732 72.732z" fill="#dddaec"/><path d="m164.267 495.702-1.225.647c-18.264 9.725-40.312-3.51-40.312-24.195v-44.282h28.146v44.282c0 10.382 5.548 18.892 13.391 23.548z" fill="#dddaec"/><g><path d="m224.847 159.609h-86.145c-17.089 0-30.942 13.853-30.942 30.942v66.25c0 17.089 13.853 30.942 30.942 30.942h86.145z" fill="#407093"/><path d="m224.849 243.314v44.427h-86.148c-17.09 0-30.941-13.868-30.941-30.942v-44.427c0 17.073 13.851 30.942 30.941 30.942z" fill="#365e7d"/><path d="m279.544 111.361h-34.185c-30.85 0-55.86 25.009-55.86 55.86v112.91c0 30.85 25.009 55.86 55.86 55.86h34.185z" fill="#df75a5"/><path d="m279.539 259.774v76.216h-34.18c-30.858 0-55.871-24.996-55.871-55.854v-76.216c0 30.842 25.012 55.854 55.871 55.854z" fill="#dd5790"/></g></g><g><path d="m431.77 4.882h-351.54c-44.239 0-80.23 35.992-80.23 80.23v26.11c0 4.142 3.357 7.5 7.5 7.5s7.5-3.358 7.5-7.5v-26.11c0-35.968 29.263-65.23 65.23-65.23h351.54c35.968 0 65.23 29.262 65.23 65.23v270.04c0 35.968-29.263 65.23-65.23 65.23h-140.12c-1.229 0-2.439.302-3.524.88l-128.61 68.479c-6.227 3.316-13.559 3.125-19.608-.508-6.053-3.635-9.667-10.021-9.667-17.081v-44.27c0-4.142-3.357-7.5-7.5-7.5h-42.511c-35.968 0-65.23-29.262-65.23-65.23v-213.93c0-4.142-3.357-7.5-7.5-7.5s-7.5 3.358-7.5 7.5v213.93c0 44.239 35.991 80.23 80.23 80.23h35.01v36.77c0 12.376 6.334 23.568 16.944 29.94 5.57 3.345 11.759 5.025 17.961 5.025 5.61 0 11.233-1.375 16.419-4.135l126.958-67.6h138.248c44.239 0 80.23-35.991 80.23-80.23v-270.04c0-44.238-35.991-80.23-80.23-80.23z"/><path d="m183.835 295.242c6.796 27.662 31.795 48.248 61.524 48.248h34.185c4.143 0 7.5-3.358 7.5-7.5v-224.629c0-4.142-3.357-7.5-7.5-7.5h-34.185c-29.729 0-54.728 20.586-61.524 48.248h-45.134c-21.196 0-38.441 17.245-38.441 38.441v66.25c0 21.197 17.245 38.441 38.441 38.441h45.134zm61.524-176.381h26.685v209.629h-26.685c-26.665 0-48.359-21.694-48.359-48.359v-112.911c0-26.665 21.694-48.359 48.359-48.359zm-130.099 137.939v-66.25c0-12.926 10.516-23.441 23.441-23.441h43.299v.111 112.91.111h-43.299c-12.926.001-23.441-10.515-23.441-23.441z"/><path d="m321.24 313.03c1.465 1.464 3.385 2.197 5.304 2.197s3.839-.732 5.304-2.197c49.27-49.271 49.27-129.439 0-178.71-2.929-2.929-7.677-2.93-10.607 0-2.929 2.929-2.929 7.678 0 10.606 43.422 43.422 43.422 114.075 0 157.497-2.929 2.93-2.929 7.679-.001 10.607z"/><path d="m395.229 298.576c.978.426 1.995.628 2.997.628 2.892 0 5.646-1.682 6.878-4.501 14.106-32.315 18.244-67.81 11.964-102.645-6.429-35.661-23.419-68.104-49.135-93.819-2.93-2.929-7.678-2.929-10.607 0s-2.929 7.678 0 10.606c23.543 23.543 39.097 53.238 44.98 85.874 5.751 31.9 1.965 64.399-10.95 93.982-1.657 3.797.078 8.217 3.873 9.875z"/><path d="m387.991 311.789c-3.443-2.304-8.101-1.38-10.404 2.062-5.902 8.821-12.719 17.117-20.261 24.658-2.929 2.929-2.929 7.678 0 10.606 1.465 1.464 3.385 2.197 5.304 2.197s3.839-.732 5.304-2.197c8.231-8.232 15.674-17.29 22.12-26.922 2.303-3.442 1.38-8.1-2.063-10.404z"/></g></g></svg>